<?xml version="1.0" encoding="UTF-8"?>
<!DOCTYPE svg PUBLIC "-//W3C//DTD SVG 1.1//EN" "http://www.w3.org/Graphics/SVG/1.1/DTD/svg11.dtd">
<!-- Creator: CorelDRAW X7 -->
<svg xmlns="http://www.w3.org/2000/svg" xml:space="preserve" width="260.386mm" height="55.8202mm" version="1.1" style="shape-rendering:geometricPrecision; text-rendering:geometricPrecision; image-rendering:optimizeQuality; fill-rule:evenodd; clip-rule:evenodd"
viewBox="0 0 26213 5619"
 xmlns:xlink="http://www.w3.org/1999/xlink">
 <defs>
  <style type="text/css">
   <![CDATA[
    .fil1 {fill:#848688}
    .fil0 {fill:#848688;fill-rule:nonzero}
    .fil2 {fill:#F58634;fill-rule:nonzero}
   ]]>
  </style>
 </defs>
 <g id="Layer_x0020_1">
  <metadata id="CorelCorpID_0Corel-Layer"/>
  <g id="_2129910606976">
   <path class="fil0" d="M4199 974l0 433 -1114 0c-196,0 -338,54 -427,162 -90,107 -134,283 -134,527 0,244 44,419 134,525 89,106 231,159 427,159l1114 0 0 438 -1157 0c-300,0 -537,-92 -712,-276 -174,-184 -261,-466 -261,-846 0,-380 87,-662 261,-846 175,-184 412,-276 712,-276l1157 0zm1973 0c138,0 257,18 357,55 99,37 180,88 244,155 64,67 110,145 138,236 29,91 43,188 43,293l0 1055c0,82 -7,151 -19,208 -13,57 -36,103 -70,138 -34,36 -82,62 -143,79 -61,17 -138,25 -232,25l-1050 0c-266,0 -458,-61 -576,-182 -117,-122 -176,-290 -176,-502 0,-102 13,-193 40,-272 27,-80 70,-147 130,-202 59,-55 137,-98 234,-128 96,-29 214,-44 353,-44l1067 0 0 -170c0,-88 -27,-162 -79,-222 -52,-59 -141,-89 -266,-89l-1343 0 0 -433 1348 0zm216 1806c83,0 124,-38 124,-114l0 -421 -1059 0c-119,0 -203,23 -251,70 -48,47 -72,111 -72,193 0,83 24,148 72,198 48,50 129,74 243,74l943 0zm1654 -2780l0 974 995 0c298,0 534,92 708,278 174,186 261,467 261,844 0,380 -87,662 -261,846 -174,184 -410,276 -708,276l-621 0c-272,0 -477,-78 -616,-236 -139,-157 -208,-399 -208,-724l0 -2258 450 0zm0 1407l0 829c0,193 38,332 115,417 76,85 207,127 391,127l442 0c196,0 338,-53 428,-159 89,-106 133,-281 133,-525 0,-244 -44,-420 -133,-527 -90,-108 -232,-162 -428,-162l-948 0zm2955 -1407l0 3218 -451 0 0 -3218 451 0zm2109 974c266,0 459,60 578,180 119,121 178,290 178,508 0,207 -58,367 -174,479 -116,112 -312,168 -587,168l-1067 0 0 161c0,91 26,165 79,223 52,58 141,87 266,87l1373 0 0 438 -1373 0c-142,0 -262,-18 -360,-55 -97,-37 -178,-89 -242,-155 -64,-67 -110,-145 -138,-234 -28,-89 -43,-188 -43,-295l0 -766c0,-105 15,-202 43,-293 28,-91 74,-169 138,-236 64,-67 145,-118 242,-155 98,-37 218,-55 360,-55l727 0zm-1072 982l1055 0c121,0 207,-24 257,-73 49,-48 74,-113 74,-195 0,-85 -25,-153 -76,-204 -51,-51 -132,-77 -243,-77l-722 0c-125,0 -214,30 -266,89 -53,60 -79,134 -79,222l0 238zm5438 -982c266,0 459,60 578,180 119,121 179,290 179,508 0,207 -59,367 -175,479 -116,112 -312,168 -586,168l-1068 0 0 161c0,91 27,165 79,223 53,58 141,87 266,87l1373 0 0 438 -1373 0c-142,0 -262,-18 -359,-55 -98,-37 -179,-89 -243,-155 -64,-67 -110,-145 -138,-234 -28,-89 -42,-188 -42,-295l0 -766c0,-105 14,-202 42,-293 28,-91 74,-169 138,-236 64,-67 145,-118 243,-155 97,-37 217,-55 359,-55l727 0zm-1072 982l1055 0c122,0 207,-24 257,-73 50,-48 74,-113 74,-195 0,-85 -25,-153 -76,-204 -51,-51 -132,-77 -242,-77l-723 0c-125,0 -213,30 -266,89 -52,60 -79,134 -79,222l0 238zm4405 -982l0 433 -1114 0c-196,0 -338,54 -427,162 -90,107 -134,283 -134,527 0,244 44,419 134,525 89,106 231,159 427,159l1114 0 0 438 -1156 0c-301,0 -538,-92 -713,-276 -174,-184 -261,-466 -261,-846 0,-380 87,-662 261,-846 175,-184 412,-276 713,-276l1156 0zm986 -974l0 974 791 0c380,0 663,86 850,259 187,173 281,414 281,723l0 1262 -455 0 0 -1262c0,-173 -54,-308 -162,-404 -107,-97 -279,-145 -514,-145l-791 0 0 1811 -450 0 0 -3218 450 0z"/>
   <path class="fil0" d="M14496 970l0 -532 455 0 0 532c246,0 406,0 617,0l0 433 -617 0 0 1063c0,128 23,216 70,264 47,48 124,72 232,72l310 0 0 413 -404 0c-116,0 -216,-13 -300,-39 -83,-25 -152,-68 -206,-127 -54,-60 -93,-139 -119,-238 -25,-100 -38,-223 -38,-370l0 -1038 -306 0c-19,-183 -82,-321 -171,-433l477 0z"/>
   <path class="fil1" d="M3537 3982l0 581c-11,39 -48,68 -91,68 -45,0 -82,-30 -92,-70l1 -587 -127 0c-20,1 -36,20 -36,44l-1 550c-12,36 -47,63 -87,63 -44,0 -80,-30 -90,-70l0 -540 -116 46c-17,7 -33,17 -33,38l0 460c-11,38 -45,66 -85,66 -42,0 -77,-29 -87,-69l0 -435 -116 40c-17,6 -33,15 -33,33l0 357c-8,42 -45,74 -89,74 -42,0 -77,-29 -87,-69l0 -332 -277 87c-21,7 -41,19 -41,41l0 872c0,23 20,34 41,41l277 88 0 -336c10,-40 45,-69 87,-69 44,0 81,31 89,73l0 370c0,18 15,29 33,33l116 28 0 -436c10,-39 45,-68 87,-68 40,0 74,27 85,65l0 475c0,21 16,33 33,38l116 33 0 -542c10,-40 46,-69 90,-69 40,0 74,25 86,61l-1 558c0,24 16,44 36,44l127 1 1 -591c9,-42 47,-73 93,-73 43,0 80,28 91,68l0 597 722 0c44,0 81,-35 82,-80l821 0c45,0 82,-37 82,-82l0 -256 4 0c45,0 82,-37 82,-83l0 -647c0,-45 -37,-82 -82,-82l-4 0 0 -255c0,-45 -37,-82 -82,-82l-822 0c-6,-39 -40,-70 -81,-70l-722 0zm804 1393l0 -330 159 0 0 73c0,46 37,83 83,83l496 0 0 174 -738 0zm0 -494l0 -172 242 0c45,0 82,-37 82,-83l0 -73 500 0 0 483 -500 0 0 -73c0,-45 -37,-82 -82,-82l-242 0zm0 -337l0 -327 738 0 0 172 -496 0c-46,0 -83,37 -83,82l0 73 -159 0zm-156 753c-109,-16 -206,-67 -280,-141 -90,-90 -146,-215 -146,-353 0,-138 56,-263 146,-354 74,-74 171,-125 280,-141l0 168c-63,14 -119,46 -163,90 -61,60 -98,144 -98,237 0,92 37,176 98,237 44,44 100,76 163,90l0 167z"/>
   <path class="fil1" d="M22675 3982l0 581c10,39 47,68 91,68 45,0 82,-30 92,-70l-1 -587 127 0c20,1 36,20 36,44l1 550c12,36 46,63 87,63 43,0 79,-30 89,-70l0 -540 116 46c18,7 33,17 33,38l0 460c11,38 46,66 86,66 42,0 77,-29 87,-69l0 -435 116 40c17,6 33,15 33,33l0 357c8,42 45,74 88,74 42,0 78,-29 88,-69l0 -332 276 87c22,7 42,19 42,41l0 872c0,23 -20,34 -42,41l-276 88 0 -336c-10,-40 -46,-69 -88,-69 -43,0 -80,31 -88,73l0 370c0,18 -16,29 -33,33l-116 28 0 -436c-10,-39 -45,-68 -87,-68 -40,0 -75,27 -86,65l0 475c0,21 -15,33 -33,38l-116 33 0 -542c-10,-40 -46,-69 -89,-69 -40,0 -74,25 -87,61l1 558c0,24 -16,44 -36,44l-126 1 -1 -591c-9,-42 -47,-73 -93,-73 -44,0 -81,28 -91,68l0 597 -722 0c-45,0 -81,-35 -82,-80l-821 0c-45,0 -82,-37 -82,-82l0 -256 -4 0c-45,0 -82,-37 -82,-83l0 -647c0,-45 37,-82 82,-82l4 0 0 -255c0,-45 37,-82 82,-82l822 0c6,-39 40,-70 81,-70l722 0zm-804 1393l0 -330 -160 0 0 73c0,46 -36,83 -82,83l-496 0 0 174 738 0zm0 -494l0 -172 -242 0c-45,0 -82,-37 -82,-83l0 -73 -501 0 0 483 501 0 0 -73c0,-45 37,-82 82,-82l242 0zm0 -337l0 -327 -738 0 0 172 496 0c46,0 82,37 82,82l0 73 160 0zm156 753c108,-16 205,-67 279,-141 91,-90 147,-215 147,-353 0,-138 -56,-263 -147,-354 -74,-74 -171,-125 -279,-141l0 168c63,14 119,46 163,90 61,60 98,144 98,237 0,92 -37,176 -98,237 -44,44 -100,76 -163,90l0 167z"/>
   <path class="fil0" d="M2073 5014l-981 0 0 -1c-30,1 11,1 -15,1 -282,0 -548,-115 -744,-301 -198,-187 -327,-447 -332,-736 -1,-37 -1,5 -1,-18l0 -997c0,-25 0,15 1,-22 6,-299 121,-568 310,-763 231,-237 499,-320 814,-320l704 0c-8,76 -12,156 -12,239 0,74 3,146 10,214l-735 0 -3 0 -14 -1 0 1c-177,0 -331,69 -440,182 -112,115 -179,275 -183,455 0,25 1,-22 1,15l0 997c0,33 -1,-16 -1,11 3,160 77,307 191,414 115,109 271,177 434,177 10,0 14,0 14,0l1 0 981 0 0 453zm-984 -452l1 -1c-2,1 -19,1 -1,1z"/>
   <path class="fil0" d="M24140 5014l981 0 0 -1c30,1 -10,1 15,1 282,0 548,-115 744,-301 198,-187 327,-447 332,-736 1,-37 1,5 1,-18l0 -975c0,-25 0,15 -1,-22 -5,-299 -120,-568 -310,-763 -192,-198 -459,-320 -764,-320l0 1 -17 0 0 0 -1159 0c2,32 3,65 3,98l0 355 1156 0 4 -1 13 0 0 0c178,0 331,69 440,182 112,115 180,275 183,455 1,25 -1,-22 -1,15l0 975c0,33 2,-16 1,11 -3,160 -77,307 -190,414 -116,109 -271,177 -435,177 -10,0 -13,0 -13,0l-2 0 -981 0 0 453zm985 -452l-2 -1c3,1 19,1 2,1z"/>
   <path class="fil2" d="M7310 4041l-224 0 -102 963 -5 0 -172 -963 -163 0 -166 941 -4 0 -106 -941 -225 0 220 1482 200 0 160 -962 5 0 162 962 200 0 220 -1482zm1306 963l-212 0 104 -536 4 0 104 536zm-524 519l212 0 63 -319 289 0 62 319 213 0 -331 -1482 -177 0 -331 1482zm1756 0l212 0 0 -1482 -212 0 0 1482zm1437 -1282l110 0c156,0 181,81 181,231 0,148 -23,231 -171,231l-120 0 0 -462zm-213 1282l213 0 0 -633 127 0 197 633 225 0 -229 -677c135,-75 183,-199 183,-370 0,-287 -123,-435 -374,-435l-342 0 0 1482zm2122 -519l-212 0 104 -536 4 0 104 536zm-524 519l212 0 62 -319 290 0 62 319 212 0 -330 -1482 -177 0 -331 1482zm1961 -1282l111 0c156,0 181,81 181,231 0,148 -23,231 -171,231l-121 0 0 -462zm-212 1282l212 0 0 -633 127 0 198 633 225 0 -229 -677c135,-75 183,-199 183,-370 0,-287 -123,-435 -375,-435l-341 0 0 1482zm2122 -519l-212 0 104 -536 4 0 104 536zm-525 519l213 0 62 -319 289 0 63 319 212 0 -331 -1482 -177 0 -331 1482zm1750 0l212 0 0 -579 108 0c156,0 250,-58 308,-154 50,-81 60,-168 60,-297 0,-177 -22,-271 -95,-348 -73,-77 -158,-104 -275,-104l-318 0 0 1482zm212 -1282l110 0c167,0 167,114 167,254 0,147 -2,249 -175,249l-102 0 0 -503zm1793 763l-212 0 104 -536 4 0 104 536zm-524 519l212 0 62 -319 290 0 62 319 212 0 -331 -1482 -177 0 -330 1482z"/>
  </g>
 </g>
</svg>
